<svg width="11" height="23" viewBox="0 0 11 23" fill="none" xmlns="http://www.w3.org/2000/svg">
<path d="M7.88 0.677992C7.726 0.761993 7.054 1.34999 6.396 1.96599C5.276 3.01599 4.856 3.30999 3.022 4.34599C2.518 4.62599 2.35 4.80799 2.35 5.05999C2.35 5.42399 2.434 5.52199 3.372 6.24999C4.198 6.89399 4.59 7.48199 4.59 8.09799C4.59 9.41399 2.784 9.37199 2.322 8.05599C2.154 7.55199 1.804 7.53799 1.272 7.98599C0.950005 8.26599 0.880005 8.43399 0.880005 8.95199C0.880005 9.63799 1.174 10.142 1.846 10.646C2.14 10.884 2.434 10.94 3.162 10.94C4.702 10.926 5.626 10.268 5.976 8.95199C6.298 7.74799 5.57 6.38999 4.03 5.39599L3.68 5.17199L4.31 4.84999C5.29 4.35999 6.62 3.36599 7.166 2.72199C7.628 2.18999 7.67 2.16199 7.67 2.48399C7.67 5.39599 7.026 17.688 6.816 18.78C6.452 20.768 5.36 21.692 3.89 21.244C3.134 21.02 2.868 20.544 2.938 19.578C2.994 18.892 3.064 18.738 3.512 18.346C4.016 17.926 4.016 17.898 3.764 17.674C3.19 17.156 2.154 17.926 1.86 19.102C1.594 20.096 1.804 20.964 2.476 21.636C3.092 22.252 3.82 22.49 5.038 22.49C6.452 22.49 7.306 22.168 8.16 21.314C8.958 20.516 9.364 19.564 9.616 17.87C9.882 16.05 10.106 11.108 10.12 6.66999C10.12 2.58199 10.092 2.04999 9.868 1.44799C9.728 1.08399 9.49 0.719992 9.35 0.649992C9 0.467993 8.23 0.481993 7.88 0.677992Z" fill="black"/>
</svg>
